<?xml version="1.0" encoding="utf-8"?>
<!-- Generator: Adobe Illustrator 24.0.0, SVG Export Plug-In . SVG Version: 6.00 Build 0)  -->
<svg version="1.1" id="Слой_1" xmlns="http://www.w3.org/2000/svg" xmlns:xlink="http://www.w3.org/1999/xlink" x="0px" y="0px"
	 viewBox="0 0 141.7 141.7" style="enable-background:new 0 0 141.7 141.7;" xml:space="preserve">
<style type="text/css">
	.st0{fill-rule:evenodd;clip-rule:evenodd;fill:#ffffff;}
	.st1{fill-rule:evenodd;clip-rule:evenodd;fill:#ffffff;}
	.st2{fill-rule:evenodd;clip-rule:evenodd;fill:#ffffff;}
	.st3{fill:#ffffff;}
</style><a href="https://gstou.ru/" target="_top">
<g>
	<g>
		<path class="st0" d="M70.9,131.4c26,0,47.3-21.3,47.3-47.3V37.3H23.5v46.7C23.5,110.1,44.8,131.4,70.9,131.4z M29.3,43.1h83.1
			v40.9c0,22.8-18.7,41.5-41.5,41.5c-22.8,0-41.5-18.7-41.5-41.5V43.1z"/>
		<polygon class="st1" points="76.5,57.4 76.5,53.3 65.2,53.3 65.2,71.1 76.5,71.1 		"/>
		<rect x="111.3" y="3.5" class="st0" width="4.3" height="0.2"/>
		<rect x="111" y="3.7" class="st0" width="4.9" height="0.2"/>
		<rect x="110.8" y="4" class="st0" width="5.4" height="0.2"/>
		<rect x="110.5" y="4.2" class="st0" width="6" height="0.2"/>
		<rect x="112.2" y="2.7" class="st0" width="2.6" height="0.2"/>
		<rect x="112.5" y="2.4" class="st0" width="2" height="0.2"/>
		<rect x="111.8" y="2.9" class="st0" width="3.4" height="0.2"/>
		<rect x="111.5" y="3.2" class="st0" width="3.9" height="0.2"/>
		<rect x="110.3" y="4.5" class="st0" width="6.4" height="0.2"/>
		<rect x="109.5" y="6.1" class="st0" width="7.9" height="0.2"/>
		<rect x="109.5" y="6.3" class="st0" width="8" height="0.2"/>
		<rect x="110.1" y="4.8" class="st0" width="6.7" height="0.2"/>
		<path class="st0" d="M117.2,7h1V6.6h-9.5V7h1.2l-0.7,16.9h-2.9h-0.7v-1.2h0.4v-1h-0.1V22h-0.2v-0.4h-0.2V22h-0.2v-0.4h-0.2V22
			h-0.2v-0.4h-0.1V22h-0.2v-0.4h-0.2V22H104v-0.4h-0.2V22h-0.2v-0.4h-0.2V22h-0.2v-0.4h-0.1v1h0.4v1.2h-0.7h-3.3v-1.2h0.4v-1h-0.1
			V22h-0.2v-0.4h-0.2V22h-0.2v-0.4H99V22h-0.2v-0.4h-0.1V22h-0.2v-0.4h-0.2V22H98v-0.4h-0.2V22h-0.2v-0.4h-0.2V22h-0.2v-0.4h-0.1v1
			h0.4v1.2h-0.9h-3.1v-1.2h0.4v-1h-0.1V22h-0.2v-0.4h-0.2V22h-0.2v-0.4h-0.2V22h-0.2v-0.4h-0.2V22h-0.2v-0.4h-0.2V22h-0.2v-0.4h-0.2
			V22h-0.2v-0.4h-0.2V22h-0.2v-0.4H91v1h0.4v1.2h-1.1h-2.5v-2.4v-1.7V17h-1.6v-3.2h-1.1h-3.6h-0.4h-0.4h-0.4h-0.4h-0.4h-0.4h-0.4
			c0-3.6-2.9-6.5-6.5-6.7V3C72.5,3,72.7,2.9,73,2.9c0.2,0,0.5,0.1,0.6,0.2v0.2c0,0.1,0,0.1,0.1,0.1c0,0,0.2,0,0.4,0
			c0.7,0,1.6-0.1,1.9-0.6c0,0,0,0,0-0.1V0.3c0,0,0-0.1-0.1-0.1c0,0-0.1,0-0.1,0c-0.3,0.2-0.7,0.4-1.2,0.4c-0.2,0-0.4,0-0.5-0.1V0.3
			c0,0,0-0.1,0-0.1C73.9,0.1,73.6,0,73.3,0c-0.5,0-1,0.2-1.3,0.4h-0.3v6.8c-3.6,0.1-6.4,3.1-6.5,6.7h-0.4h-0.4h-0.4h-0.4h-0.4H63
			h-0.4H59h-1.1V17h-1.6v2.8v1.7v2.4h-1.4h-2.3v-1.2H53v-1h-0.1V22h-0.2v-0.4h-0.2V22h-0.2v-0.4h-0.2V22h-0.2v-0.4h-0.2V22h-0.2
			v-0.4h-0.2V22h-0.2v-0.4H51V22h-0.2v-0.4h-0.2V22h-0.2v-0.4h-0.1v1h0.4v1.2h-1h-3v-1.2H47v-1h-0.1V22h-0.2v-0.4h-0.2V22h-0.2v-0.4
			h-0.2V22h-0.2v-0.4h-0.2V22h-0.2v-0.4h-0.2V22H45v-0.4h-0.2V22h-0.2v-0.4h-0.2V22h-0.2v-0.4h-0.1v1h0.4v1.2h-0.7h-3.3v-1.2h0.4v-1
			h-0.1V22h-0.2v-0.4h-0.2V22h-0.2v-0.4H40V22h-0.2v-0.4h-0.1V22h-0.2v-0.4h-0.2V22H39v-0.4h-0.2V22h-0.2v-0.4h-0.2V22h-0.2v-0.4H38
			v1h0.4v1.2h-0.3h-1.6h-1.6v-3.5v-4.3V15h-0.8v1.1h-0.8V15h-0.8v1.1h-0.8V15H31v1.1h-0.3v-2.2c0.1,0,0.1-0.1,0.1-0.1v-1.6H31
			c0.1,0,0.1-0.1,0.1-0.1v-0.3c0-0.1-0.1-0.1-0.1-0.1h-0.2l-0.5-3.2c0,0,0.1-0.1,0.1-0.1V8.2c0-0.1-0.1-0.1-0.1-0.1h0l-0.2-1
			c0,0,0,0,0-0.1l-0.2-1.5c0,0,0-0.1,0-0.1V5.2c0-0.1-0.1-0.1-0.1-0.1l-0.1-0.4c0.1,0,0.1-0.1,0.1-0.1V4.3c0-0.1-0.1-0.1-0.1-0.1h-1
			c-0.1,0-0.1,0.1-0.1,0.1v0.3c0,0.1,0,0.1,0.1,0.1l-0.1,0.4c-0.1,0-0.1,0.1-0.1,0.1v0.3c0,0,0,0.1,0,0.1L28.1,8h0
			c-0.1,0-0.1,0.1-0.1,0.1v0.3c0,0,0,0.1,0.1,0.1l-0.5,3.2h-0.2c-0.1,0-0.1,0.1-0.1,0.1v0.3c0,0.1,0.1,0.1,0.1,0.1h0.1v1.6
			c0,0.1,0.1,0.1,0.1,0.1h0v2.2h-0.3V15h-0.8v1.1h-0.8V15H25v1.1h-0.8V15h-0.8v1.1v4.3v7.1v0.7v5.3h94.7L117.2,7z M29.3,4.7
			L29.3,4.7l0.2,0.4h-0.2V4.7z M29.3,5.6L29.3,5.6L29.3,5.6L29.3,5.6z M29.3,5.9l0.3-0.2l0.2,1.1l-0.5-0.2V5.9z M29.3,6.9l0.4,0.2
			l-0.4,0.2V6.9z M29.3,7.6l0.5-0.3L30,8h-0.7V7.6z M29.3,8.6h0.7l0.1,0.7l-0.9-0.4V8.6z M29.3,9.1L30,9.5l-0.7,0.3V9.1z M29,11.7
			h-1.3l0.2-1l1.1,0.5V11.7z M29,11l-0.9-0.4l0.9-0.4V11z M29,9.9l-1,0.4l0.3-1.8L29,8.9V9.9z M29,8.7l-0.2-0.1H29V8.7z M29,8h-0.3
			L29,7.8V8z M29,7.5L28.4,8l0.2-1.5L29,6.7V7.5z M29,6.4l-0.2-0.1L29,6.2V6.4z M29,5.9l-0.3,0.2l0.1-0.5H29V5.9z M29,5.1h-0.2
			l0.1-0.4H29V5.1z M29.3,11.7v-0.3l0.6,0.3H29.3z M30.5,11.7l-1.2-0.6V10l0.9-0.4L30.5,11.7L30.5,11.7z M112.8,11.7
			c0-0.4,0.3-0.7,0.7-0.7c0.4,0,0.7,0.3,0.7,0.7v0.8h-1.3V11.7z M112.7,12.7h1.5v0.2h-1.5V12.7z M114.1,17.2V18h-1.3v-0.8
			c0-0.4,0.3-0.7,0.7-0.7C113.8,16.4,114.1,16.8,114.1,17.2z M112.7,18.1h1.5v0.2h-1.5V18.1z M114.8,27.3h-2.6v-1.6
			c0-0.8,0.6-1.4,1.3-1.4c0.7,0,1.3,0.6,1.3,1.4V27.3z"/>
		<rect x="109.6" y="5.8" class="st0" width="7.7" height="0.2"/>
		<rect x="109.7" y="5.5" class="st0" width="7.6" height="0.2"/>
		<rect x="110" y="5" class="st0" width="7" height="0.2"/>
		<rect x="109.8" y="5.3" class="st0" width="7.3" height="0.2"/>
		<path class="st0" d="M52.1,97.4h13.2c2,0,4.4-1.2,5.6-2.6c1.3,1.4,3.5,2.6,5.6,2.6h13.2c6.2,0,11.2-5,11.2-11.2h0c0,0,0,0,0,0v-33
			H89.6v4.2v19.8v4.9c0,2.3-1.9,4.2-4.2,4.2h-4.8c-2.3,0-4.2-1.9-4.2-4.2v-4.9v-1.9v-2.3H60.2v10.4c0.5,0,1.1-0.5,1.3-1.1h0
			c0.9-3.2,3.3-4.6,4.7-4.6c6.4,0.5,7.2-1.2,8.1-2c-0.2,1.7,0.8,6-3.3,7.7c-2.8,1.2-4.4,0.5-6.2,0.2c-0.6,1.5-2.1,2.6-3.8,2.6h-4.8
			c-2.3,0-4.2-1.9-4.2-4.2v-4.9v-3.5v-0.2V71v-1.5v-0.9c0-2.3,1.9-4.2,4.2-4.2h4.6V53.3h-8.8c-6.2,0-11.2,5-11.2,11.2h0c0,0,0,0,0,0
			v2.4v6.8v12.6c0,0,0,0,0,0h0C40.9,92.4,45.9,97.4,52.1,97.4z"/>
		<path class="st0" d="M69.4,78.9c-5.9,0.4-7.4,3.6-8.1,4.6l0,0h0.5C64,80.7,67.4,79.4,69.4,78.9z"/>
	</g>
	<path class="st2" d="M13.7,54.5h3.3v2.2l-0.5-0.2v-1.5h-2.8V54.5L13.7,54.5z M13.7,57.8h3.3v1.6c0,0.2,0,0.3-0.1,0.4
		c-0.1,0.1-0.1,0.2-0.2,0.3c-0.1,0.1-0.2,0.1-0.3,0.2c-0.1,0-0.3,0.1-0.4,0.1c-0.2,0-0.3,0-0.4-0.1c-0.1,0-0.2-0.1-0.3-0.2
		c-0.1-0.1-0.2-0.2-0.2-0.3c-0.1-0.1-0.1-0.3-0.1-0.4v-1.1h-1.2V57.8L13.7,57.8z M15.3,58.4v0.9c0,0.2,0,0.4,0.1,0.5
		c0.1,0.1,0.2,0.1,0.4,0.1c0.2,0,0.3-0.1,0.4-0.2c0.1-0.1,0.1-0.3,0.1-0.4v-0.9H15.3L15.3,58.4z M15.3,61.5h0.1c0.2,0,0.4,0,0.6,0.1
		c0.2,0.1,0.4,0.2,0.5,0.3c0.1,0.1,0.2,0.3,0.3,0.5c0.1,0.2,0.1,0.4,0.1,0.6c0,0.2,0,0.4-0.1,0.6c-0.1,0.2-0.2,0.4-0.3,0.5
		c-0.1,0.1-0.3,0.2-0.5,0.3c-0.2,0.1-0.4,0.1-0.6,0.1h-0.1c-0.2,0-0.5,0-0.7-0.1c-0.2-0.1-0.4-0.2-0.5-0.3c-0.2-0.1-0.3-0.3-0.4-0.5
		c-0.1-0.2-0.1-0.4-0.1-0.7c0-0.3,0-0.5,0.1-0.7c0.1-0.2,0.2-0.4,0.4-0.5c0.2-0.1,0.3-0.2,0.5-0.3C14.8,61.5,15,61.5,15.3,61.5
		L15.3,61.5z M15.3,62c-0.2,0-0.3,0-0.5,0.1c-0.1,0-0.3,0.1-0.4,0.2c-0.1,0.1-0.2,0.2-0.3,0.3c-0.1,0.1-0.1,0.3-0.1,0.5
		c0,0.2,0,0.4,0.1,0.5c0.1,0.1,0.1,0.2,0.2,0.3c0.1,0.1,0.2,0.1,0.4,0.2c0.1,0,0.3,0.1,0.5,0.1h0.1c0.3,0,0.6-0.1,0.8-0.3
		c0.2-0.2,0.3-0.4,0.3-0.8c0-0.3-0.1-0.6-0.3-0.8C16,62.1,15.7,62,15.4,62H15.3L15.3,62z M14.1,65.9l0.3,0.3
		c-0.1,0.1-0.2,0.2-0.3,0.3c0,0.1-0.1,0.2-0.1,0.4c0,0.2,0,0.4,0.1,0.5c0.1,0.1,0.2,0.2,0.4,0.2c0.1,0,0.2,0,0.3-0.1
		c0.1,0,0.1-0.1,0.1-0.1c0-0.1,0.1-0.1,0.1-0.2c0-0.1,0-0.2,0-0.3v-0.2h0.5v0.3c0,0.2,0,0.3,0.1,0.4c0.1,0.1,0.2,0.2,0.4,0.2
		c0.1,0,0.2,0,0.3-0.1c0.1-0.1,0.1-0.2,0.1-0.4c0-0.1,0-0.1,0-0.2c0-0.1,0-0.1,0-0.1c0,0,0-0.1-0.1-0.1c0,0-0.1-0.1-0.1-0.1l0.3-0.4
		c0.2,0.1,0.3,0.3,0.4,0.4c0.1,0.2,0.1,0.4,0.1,0.6c0,0.3-0.1,0.6-0.2,0.7s-0.4,0.3-0.6,0.3c-0.1,0-0.1,0-0.2,0
		c-0.1,0-0.1,0-0.2-0.1c-0.1,0-0.1-0.1-0.2-0.1c-0.1,0-0.1-0.1-0.1-0.1c-0.1,0.2-0.2,0.3-0.3,0.3C15,68,14.8,68,14.6,68
		c-0.2,0-0.3,0-0.5-0.1c-0.1-0.1-0.2-0.1-0.3-0.3c-0.1-0.1-0.1-0.2-0.2-0.3c0-0.1-0.1-0.3-0.1-0.4c0-0.1,0-0.3,0-0.4
		c0-0.1,0-0.2,0.1-0.3c0-0.1,0.1-0.2,0.2-0.2C13.9,66,14,65.9,14.1,65.9L14.1,65.9z M13.7,69.3h3.3v0.5h-1.3v1.6h1.3V72h-3.3v-0.5
		h1.5v-1.6h-1.5V69.3L13.7,69.3z M13.7,73.4h3.3v2.4l-0.5-0.2v-1.7h-0.8v1.6h-0.5v-1.6h-1v1.9h-0.5V73.4L13.7,73.4z M13.7,77.2h3.3
		v0.5h-1.3v1.6h1.3v0.5h-3.3v-0.5h1.5v-1.6h-1.5V77.2L13.7,77.2z M15.3,81.1h0.2c0.2,0,0.5,0,0.6,0.1c0.2,0.1,0.4,0.2,0.5,0.3
		c0.1,0.1,0.2,0.3,0.3,0.5c0.1,0.2,0.1,0.4,0.1,0.7c0,0.2,0,0.4-0.1,0.6c-0.1,0.2-0.2,0.3-0.3,0.5l-0.4-0.4c0.1-0.1,0.2-0.2,0.2-0.3
		c0-0.1,0.1-0.2,0.1-0.4c0-0.3-0.1-0.6-0.3-0.7c-0.2-0.2-0.4-0.2-0.8-0.2h-0.2c-0.2,0-0.4,0-0.5,0c-0.1,0-0.3,0.1-0.4,0.1
		c-0.1,0.1-0.2,0.2-0.2,0.3c-0.1,0.1-0.1,0.3-0.1,0.5c0,0.1,0,0.3,0,0.4c0,0.1,0.1,0.2,0.2,0.3L14,83.7c-0.1-0.1-0.3-0.3-0.3-0.5
		c-0.1-0.2-0.1-0.4-0.1-0.6c0-0.3,0-0.5,0.1-0.7c0.1-0.2,0.2-0.4,0.3-0.5c0.1-0.1,0.3-0.2,0.5-0.3C14.8,81.1,15,81.1,15.3,81.1
		L15.3,81.1z M13.6,85l3.3-0.1l0,0.5l-1.4,0l0,0.3l1.4,0.9l0,0.6l-1.6-1l-1.6,1.3l0-0.6l1.4-1.1l0-0.3l-1.5,0L13.6,85L13.6,85z
		 M13.8,88.8l3.3-0.2l0,0.5l-2.4,0.2l2.5,1.4l0,0.5L14,91.5l0-0.5l2.4-0.2l-2.6-1.4L13.8,88.8L13.8,88.8z M14.3,92.9l3.2-0.5
		l0.1,0.5l-2.4,0.3l2.6,1.3l0.1,0.5l-3.2,0.5L14.6,95l2.4-0.3l-2.7-1.3L14.3,92.9L14.3,92.9z M18.4,92.9c-0.1,0-0.2,0-0.3,0.1
		c-0.1,0-0.1,0.1-0.2,0.2c0,0.1-0.1,0.2-0.1,0.2c0,0.1,0,0.2,0,0.3c0,0.1,0,0.2,0.1,0.2c0,0.1,0.1,0.1,0.1,0.2
		c0.1,0.1,0.1,0.1,0.2,0.1c0.1,0,0.2,0,0.3,0l0-0.3c-0.1,0-0.2,0-0.2-0.1c0-0.1-0.1-0.1-0.1-0.2c0-0.1,0-0.2,0-0.3
		c0-0.1,0.1-0.1,0.2-0.1L18.4,92.9L18.4,92.9z M16.5,102.1l3.1-1.1l0.7,2l-0.5,0l-0.5-1.4l-2.6,0.9L16.5,102.1L16.5,102.1z
		 M19.1,104.5l0.1,0c0.2-0.1,0.4-0.1,0.6-0.1c0.2,0,0.4,0,0.6,0.1c0.2,0.1,0.3,0.2,0.5,0.3c0.1,0.2,0.3,0.3,0.3,0.6
		c0.1,0.2,0.1,0.4,0.1,0.6c0,0.2,0,0.4-0.1,0.6c-0.1,0.2-0.2,0.3-0.3,0.5c-0.1,0.1-0.3,0.3-0.5,0.3l-0.1,0c-0.2,0.1-0.5,0.1-0.7,0.2
		c-0.2,0-0.4,0-0.6-0.1c-0.2-0.1-0.4-0.2-0.5-0.3c-0.2-0.2-0.3-0.4-0.4-0.6c-0.1-0.2-0.1-0.5-0.1-0.7c0-0.2,0.1-0.4,0.1-0.6
		c0.1-0.2,0.2-0.3,0.4-0.5C18.6,104.7,18.8,104.6,19.1,104.5L19.1,104.5z M19.3,105c-0.2,0.1-0.3,0.1-0.4,0.2
		c-0.1,0.1-0.2,0.2-0.3,0.3c-0.1,0.1-0.1,0.2-0.1,0.4c0,0.1,0,0.3,0.1,0.5c0.1,0.2,0.2,0.3,0.3,0.4c0.1,0.1,0.2,0.2,0.4,0.2
		c0.1,0,0.3,0,0.4,0c0.2,0,0.3-0.1,0.5-0.1l0.1,0c0.3-0.1,0.5-0.3,0.6-0.5c0.1-0.2,0.1-0.5,0-0.8c-0.1-0.3-0.3-0.5-0.6-0.6
		c-0.2-0.1-0.5-0.1-0.8,0L19.3,105L19.3,105z M20.7,108.4l0.2-0.1c0.2-0.1,0.4-0.2,0.6-0.2c0.2,0,0.4,0,0.6,0
		c0.2,0.1,0.3,0.2,0.5,0.3c0.1,0.1,0.3,0.3,0.4,0.5c0.1,0.2,0.1,0.4,0.2,0.5c0,0.2,0,0.4-0.1,0.6l-0.5-0.2c0-0.1,0.1-0.3,0-0.4
		c0-0.1-0.1-0.2-0.1-0.4c-0.2-0.3-0.3-0.5-0.6-0.5c-0.2-0.1-0.5,0-0.8,0.1l-0.1,0.1c-0.2,0.1-0.3,0.2-0.4,0.3
		c-0.1,0.1-0.2,0.2-0.3,0.3c-0.1,0.1-0.1,0.2-0.1,0.4c0,0.1,0.1,0.3,0.2,0.5c0.1,0.1,0.1,0.2,0.2,0.3c0.1,0.1,0.2,0.1,0.3,0.2
		l-0.1,0.5c-0.2-0.1-0.4-0.1-0.5-0.3c-0.1-0.1-0.3-0.3-0.3-0.5c-0.1-0.2-0.2-0.5-0.2-0.7c0-0.2,0-0.4,0.1-0.6
		c0.1-0.2,0.2-0.3,0.3-0.5C20.3,108.7,20.5,108.5,20.7,108.4L20.7,108.4z M23.8,110.9l-1.2,1.8c0,0.1-0.1,0.1-0.1,0.2
		c0,0.1,0,0.2,0,0.2l-0.4,0c-0.1,0-0.1,0-0.2,0c0,0-0.1-0.1-0.1-0.1l-0.1-0.1l-0.4,0.2c0,0,0,0.1,0,0.2c0,0.1,0,0.1,0.1,0.2
		c0,0.1,0.1,0.1,0.2,0.2c0.1,0,0.1,0.1,0.2,0.1c0.1,0,0.1,0,0.2,0c0.1,0,0.1,0,0.2,0l3-0.3l-0.1-0.5l-2,0.2c0,0,0-0.1,0-0.1
		c0,0,0-0.1,0-0.1l1.1-1.6L23.8,110.9L23.8,110.9z M23.4,115.6c0,0.1,0.1,0.1,0.1,0.1c0,0,0.1,0.1,0.1,0.1c0,0,0.1,0,0.1,0
		c0,0,0.1,0,0.1,0c0,0,0.1,0,0.1,0c0,0,0.1,0,0.1,0c0.1,0,0.2-0.1,0.4-0.1c0.1,0,0.2-0.1,0.3-0.2c0.2-0.1,0.4-0.3,0.7-0.4l0.7-0.5
		l1.2,1.7l-2.3,1.6l0.2,0.3l-0.9,0.6l-0.3-0.4l0.5-0.4l-1.2-1.7l-0.5,0.4l-0.3-0.4L23.4,115.6L23.4,115.6z M23.9,116.3l0.8,1.1
		l1.9-1.4l-0.6-0.8l-0.3,0.2c-0.1,0-0.1,0.1-0.2,0.1c-0.1,0-0.1,0.1-0.2,0.1c-0.1,0-0.1,0.1-0.2,0.1c-0.1,0-0.1,0.1-0.2,0.1
		c-0.2,0.1-0.3,0.1-0.5,0.2c-0.1,0-0.2,0.1-0.2,0.1C24,116.2,24,116.3,23.9,116.3L23.9,116.3z M25.5,119.2l0.4,0.4l0.9-0.3l0.8,1
		l-0.5,0.9l0.4,0.4l1.7-3.1l-0.4-0.5L25.5,119.2L25.5,119.2z M27.2,119.2l0.6,0.8l0.6-1l0.2-0.3l-0.3,0.2L27.2,119.2L27.2,119.2z
		 M28.3,122.6l2.4-2.2l1.1,1.2c0.1,0.1,0.2,0.2,0.2,0.3c0,0.1,0.1,0.2,0.1,0.4c0,0.1,0,0.2-0.1,0.4c-0.1,0.1-0.1,0.2-0.3,0.3
		c-0.1,0.1-0.2,0.2-0.3,0.2c-0.1,0.1-0.2,0.1-0.4,0.1c-0.1,0-0.2,0-0.4-0.1c-0.1,0-0.2-0.1-0.3-0.2l-0.7-0.8l-0.9,0.8L28.3,122.6
		L28.3,122.6z M29.9,121.8l0.6,0.7c0.1,0.2,0.3,0.2,0.4,0.2c0.1,0,0.3-0.1,0.4-0.2c0.1-0.1,0.2-0.3,0.2-0.4c0-0.1-0.1-0.3-0.2-0.4
		l-0.6-0.7L29.9,121.8L29.9,121.8z M31.9,124l0.1-0.1c0.2-0.2,0.3-0.3,0.5-0.4c0.2-0.1,0.4-0.1,0.5-0.2c0.2,0,0.4,0,0.6,0.1
		c0.2,0.1,0.4,0.2,0.6,0.4c0.1,0.1,0.3,0.3,0.4,0.4s0.1,0.4,0.2,0.5l-0.5,0c0-0.1,0-0.3-0.1-0.4c-0.1-0.1-0.1-0.2-0.2-0.3
		c-0.2-0.2-0.5-0.3-0.7-0.3c-0.2,0-0.5,0.2-0.7,0.4l-0.1,0.1c-0.1,0.1-0.2,0.3-0.3,0.4c-0.1,0.1-0.1,0.3-0.1,0.4
		c0,0.1,0,0.2,0.1,0.4c0.1,0.1,0.2,0.3,0.3,0.4c0.1,0.1,0.2,0.2,0.3,0.2c0.1,0.1,0.2,0.1,0.4,0.1l0,0.5c-0.2,0-0.4,0-0.6-0.1
		c-0.2-0.1-0.3-0.2-0.5-0.3c-0.2-0.2-0.3-0.4-0.4-0.6c-0.1-0.2-0.1-0.4-0.1-0.6c0-0.2,0.1-0.4,0.2-0.6
		C31.6,124.4,31.7,124.2,31.9,124L31.9,124z M35.3,125.6l0.8,0.7l-1.8,2.1l0.4,0.3l1.8-2.1l0.7,0.6l0.4-0.3l-2-1.7L35.3,125.6
		L35.3,125.6z M36.5,130.1l1.9-2.6l1.1,0.8c0.1,0.1,0.2,0.2,0.3,0.3c0.1,0.1,0.1,0.2,0.2,0.3c0,0.1,0,0.2,0,0.3
		c0,0.1-0.1,0.2-0.2,0.3c-0.2,0.2-0.4,0.3-0.6,0.3l0,0c0.1,0.2,0.1,0.3,0.1,0.5c0,0.2-0.1,0.3-0.2,0.5c-0.1,0.1-0.2,0.2-0.3,0.3
		c-0.1,0.1-0.2,0.1-0.4,0.1c-0.1,0-0.2,0-0.4-0.1c-0.1,0-0.2-0.1-0.4-0.2L36.5,130.1L36.5,130.1z M37.2,130l0.8,0.6
		c0.2,0.1,0.3,0.2,0.4,0.2c0.1,0,0.2-0.1,0.3-0.2c0.1-0.1,0.1-0.3,0.1-0.4c0-0.1-0.1-0.2-0.3-0.3l-0.8-0.6L37.2,130L37.2,130z
		 M38.1,128.9l0.7,0.5c0.1,0.1,0.2,0.1,0.3,0.1c0.1,0,0.2-0.1,0.3-0.2c0.1-0.1,0.1-0.2,0.1-0.3c0-0.1-0.1-0.2-0.2-0.2l-0.7-0.5
		L38.1,128.9L38.1,128.9z M39.7,132.4l2,1.3l0.3-0.4l-1.6-1l0.5-0.8l1.3,0.8l0.3-0.4l-1.3-0.8l0.4-0.7l1.5,0.9l0.4-0.3l-2-1.3
		L39.7,132.4L39.7,132.4z M42.9,134.3l1.6-2.9l0.5,0.3l-0.6,1.1l1.4,0.7l0.6-1.1l0.5,0.3l-1.6,2.9l-0.5-0.3l0.7-1.3l-1.4-0.7
		l-0.7,1.3L42.9,134.3L42.9,134.3z M46.5,136.2l0.5,0.2l0.6-1.4l1.4,0.6l-0.6,1.4l0.5,0.2l1.3-3l-0.5-0.2l-0.5,1.2l-1.4-0.6l0.5-1.2
		l-0.5-0.2L46.5,136.2L46.5,136.2z M50.2,137.8l1-3.1l0.5,0.2l-0.4,1.3l1,0.3c0.3,0.1,0.5,0.3,0.6,0.5c0.1,0.2,0.1,0.5,0,0.8
		c-0.1,0.2-0.1,0.3-0.2,0.4c-0.1,0.1-0.2,0.2-0.3,0.2c-0.1,0-0.2,0.1-0.4,0.1c-0.1,0-0.3,0-0.4-0.1L50.2,137.8L50.2,137.8z
		 M50.9,137.5l0.9,0.3c0.2,0.1,0.3,0.1,0.4,0c0.1-0.1,0.2-0.2,0.2-0.3c0-0.2,0-0.3,0-0.4c0-0.1-0.2-0.2-0.4-0.2l-0.9-0.3L50.9,137.5
		L50.9,137.5z M52.9,138.7l0.5,0.2l1-3.1l-0.5-0.2L52.9,138.7L52.9,138.7z M54.8,139.3l0.9-3.1l0.5,0.1l-0.7,2.3l2.2-1.9l0.5,0.1
		l-0.9,3.1l-0.5-0.1l0.7-2.4l-2.2,1.9L54.8,139.3L54.8,139.3z M56.5,135.6c0,0.1,0,0.2,0,0.3c0,0.1,0.1,0.2,0.1,0.2
		c0.1,0.1,0.1,0.1,0.2,0.2c0.1,0,0.2,0.1,0.2,0.1c0.1,0,0.2,0,0.3,0c0.1,0,0.2,0,0.2,0c0.1,0,0.1-0.1,0.2-0.1
		c0.1-0.1,0.1-0.1,0.1-0.2l-0.3-0.1c0,0.1-0.1,0.1-0.2,0.2c-0.1,0-0.2,0-0.3,0c-0.1,0-0.2-0.1-0.2-0.1c-0.1-0.1-0.1-0.1,0-0.2
		L56.5,135.6L56.5,135.6z M64.1,141.2l0.3-3.3l0.5,0.1l-0.1,1.3l1.6,0.2l0.1-1.3l0.5,0.1l-0.3,3.3l-0.5-0.1l0.1-1.5l-1.6-0.2
		l-0.1,1.5L64.1,141.2L64.1,141.2z M68.1,141.6l0.2-3.3l2.4,0.1l-0.2,0.5l-1.7-0.1l0,0.8l1.6,0.1l0,0.5l-1.6-0.1l-0.1,1l1.9,0.1
		l0,0.5L68.1,141.6L68.1,141.6z M71.7,140L71.7,140c0-0.3,0-0.4,0.1-0.6c0-0.2,0.1-0.3,0.2-0.4c0.1-0.1,0.2-0.2,0.3-0.3
		c0.1-0.1,0.3-0.1,0.5-0.1c0.1,0,0.1,0,0.2,0c0.1,0,0.1,0,0.2,0l0-0.4l0.5,0l0,0.4c0.1,0,0.1,0,0.2-0.1c0.1,0,0.1,0,0.2,0
		c0.2,0,0.4,0,0.5,0.1c0.1,0.1,0.3,0.1,0.4,0.3c0.1,0.1,0.2,0.2,0.2,0.4c0.1,0.2,0.1,0.3,0.1,0.5l0,0.1c0,0.2,0,0.3-0.1,0.5
		c0,0.2-0.1,0.3-0.2,0.4c-0.1,0.1-0.2,0.2-0.3,0.3c-0.1,0.1-0.3,0.1-0.5,0.1c-0.1,0-0.1,0-0.2,0c-0.1,0-0.1,0-0.2,0l0,0.5l-0.5,0
		l0-0.5c-0.1,0-0.1,0-0.2,0.1c-0.1,0-0.1,0-0.2,0c-0.2,0-0.4,0-0.5-0.1c-0.1-0.1-0.3-0.1-0.4-0.3c-0.1-0.1-0.2-0.2-0.2-0.4
		C71.7,140.3,71.7,140.2,71.7,140L71.7,140z M72.2,140c0,0.1,0,0.2,0.1,0.3c0,0.1,0.1,0.2,0.1,0.2c0.1,0.1,0.1,0.1,0.2,0.2
		c0.1,0,0.2,0.1,0.3,0c0.1,0,0.1,0,0.2,0c0.1,0,0.1,0,0.2-0.1l0-1.5c-0.1,0-0.2-0.1-0.3-0.1c-0.1,0-0.2,0-0.3,0.1
		c-0.1,0-0.1,0.1-0.2,0.2c-0.1,0.1-0.1,0.1-0.1,0.2c0,0.1,0,0.2,0,0.3L72.2,140L72.2,140z M73.7,140.6c0.1,0,0.1,0,0.2,0
		c0.1,0,0.1,0,0.2,0c0.1,0,0.2,0,0.3-0.1c0.1,0,0.1-0.1,0.2-0.2c0-0.1,0.1-0.1,0.1-0.2c0-0.1,0-0.2,0-0.3l0-0.1c0-0.1,0-0.2,0-0.3
		c0-0.1-0.1-0.2-0.1-0.2c-0.1-0.1-0.1-0.1-0.2-0.2c-0.1,0-0.2,0-0.3,0c-0.1,0-0.2,0-0.3,0.1L73.7,140.6L73.7,140.6z M76,138.6
		l-0.1-0.5l2.6-0.3l-0.1,0.5l-0.9,0.1l0.3,2.8l-0.5,0.1l-0.3-2.8L76,138.6L76,138.6z M80.1,141l-0.1-0.3c0.1,0,0.1,0,0.2-0.1
		c0,0,0.1-0.1,0.1-0.1l0.6-1.1c-0.3,0-0.5,0-0.7-0.1c-0.2-0.1-0.3-0.3-0.4-0.6c0-0.2,0-0.3,0-0.4c0-0.1,0.1-0.2,0.2-0.3
		c0.1-0.1,0.2-0.2,0.3-0.2c0.1-0.1,0.2-0.1,0.4-0.1l1.5-0.3l0.7,3.2l-0.5,0.1l-0.3-1.4l-0.3,0.1c-0.1,0-0.1,0-0.2,0.1
		c0,0-0.1,0.1-0.1,0.1l-0.6,1.2c0,0.1-0.1,0.2-0.2,0.2c-0.1,0.1-0.2,0.1-0.3,0.2c0,0-0.1,0-0.1,0C80.1,141,80.1,141,80.1,141
		L80.1,141z M80.3,138.5c0,0.2,0.1,0.3,0.2,0.3c0.1,0,0.2,0.1,0.4,0l1-0.2l-0.2-0.9l-1,0.2c-0.2,0-0.3,0.1-0.4,0.2
		C80.2,138.2,80.2,138.3,80.3,138.5L80.3,138.5z M84.2,140.1l-0.9-3.1l0.5-0.1l0.3,1.2l1.5-0.4l-0.3-1.2l0.5-0.1l0.9,3.1l-0.5,0.1
		l-0.4-1.4l-1.5,0.4l0.4,1.4L84.2,140.1L84.2,140.1z M87.4,137.5l0-0.1c-0.1-0.2-0.1-0.4-0.1-0.6c0-0.2,0.1-0.4,0.1-0.6
		c0.1-0.2,0.2-0.3,0.4-0.5c0.2-0.1,0.3-0.2,0.6-0.3c0.2-0.1,0.4-0.1,0.6-0.1c0.2,0,0.4,0.1,0.6,0.1c0.2,0.1,0.3,0.2,0.5,0.4
		c0.1,0.2,0.2,0.3,0.3,0.6l0,0.1c0.1,0.2,0.1,0.5,0.1,0.7c0,0.2,0,0.4-0.1,0.6c-0.1,0.2-0.2,0.4-0.4,0.5c-0.2,0.1-0.4,0.3-0.6,0.3
		c-0.2,0.1-0.5,0.1-0.7,0.1c-0.2,0-0.4-0.1-0.6-0.2c-0.2-0.1-0.3-0.2-0.5-0.4C87.6,137.9,87.5,137.7,87.4,137.5L87.4,137.5z
		 M87.9,137.3c0.1,0.2,0.1,0.3,0.2,0.4c0.1,0.1,0.2,0.2,0.3,0.3c0.1,0.1,0.2,0.1,0.4,0.1c0.1,0,0.3,0,0.5-0.1
		c0.2-0.1,0.3-0.1,0.4-0.2c0.1-0.1,0.2-0.2,0.2-0.3c0-0.1,0.1-0.3,0-0.4c0-0.2-0.1-0.3-0.1-0.5l0-0.1c-0.1-0.3-0.3-0.5-0.5-0.7
		c-0.2-0.1-0.5-0.1-0.8,0c-0.3,0.1-0.5,0.3-0.6,0.5c-0.1,0.2-0.1,0.5,0,0.8L87.9,137.3L87.9,137.3z M92.2,137.5l-1.3-3l0.5-0.2
		l1,2.2l0.5-2.9l0.5-0.2l1.3,3l-0.5,0.2l-1-2.2l-0.5,2.9L92.2,137.5L92.2,137.5z M91.1,133.6c0,0.1,0.1,0.2,0.2,0.2
		c0.1,0.1,0.1,0.1,0.2,0.1c0.1,0,0.2,0,0.2,0c0.1,0,0.2,0,0.2-0.1c0.1,0,0.1-0.1,0.2-0.1c0.1-0.1,0.1-0.1,0.2-0.2
		c0-0.1,0.1-0.1,0.1-0.2c0-0.1,0-0.2-0.1-0.3l-0.3,0.1c0,0.1,0,0.2,0,0.2c-0.1,0.1-0.1,0.1-0.2,0.2c-0.1,0-0.2,0.1-0.3,0.1
		c-0.1,0-0.1-0.1-0.2-0.1L91.1,133.6L91.1,133.6z M99,131l-0.3-0.4l2.3-1.4l0.1,0.5l-0.8,0.5l1.5,2.4l-0.5,0.3l-1.5-2.4L99,131
		L99,131z M103.7,131.2l1.9-1.4l-0.3-0.4l-1.5,1.1l-0.6-0.8l1.3-0.9l-0.3-0.4l-1.3,0.9l-0.5-0.7l1.4-1l-0.2-0.5l-2,1.4L103.7,131.2
		L103.7,131.2z M106.7,129l-0.2-2.1l-1.8-0.4l0.3-0.4l1.1,0.2l0.4,0.2l-0.1-0.5l-0.1-1.1l0.5-0.2l0.2,1.8l2.1,0.4l-0.5,0.4l-1.4-0.3
		l-0.2-0.1l0.1,0.3l0.1,1.4L106.7,129L106.7,129z M110,126l0.4-0.4l-1-1.1l1.1-1.1l1,1.1l0.4-0.4l-2.2-2.4l-0.4,0.4l0.9,0.9
		l-1.1,1.1l-0.9-0.9l-0.4,0.4L110,126L110,126z M112.9,123.2l-2.4-2.2l0.4-0.4l1.8,1.6l-0.7-2.8l0.4-0.4l2.4,2.2l-0.4,0.4l-1.8-1.6
		l0.7,2.9L112.9,123.2L112.9,123.2z M113.7,118.9c0.1,0.1,0.3,0.2,0.4,0.2c0.1,0,0.3,0,0.4,0c0.1,0,0.3-0.1,0.4-0.2
		c0.1-0.1,0.2-0.2,0.3-0.3c0.1-0.1,0.2-0.2,0.2-0.4c0-0.1,0.1-0.3,0.1-0.5l1.1,0.9l0.3-0.4l-2.6-2l-0.3,0.4l1.1,0.8
		c0,0.2,0,0.3,0,0.5c0,0.2-0.1,0.3-0.2,0.4c-0.1,0.1-0.1,0.1-0.2,0.2c-0.1,0-0.1,0-0.2,0c-0.1,0-0.2,0-0.2-0.1
		c-0.1,0-0.2-0.1-0.2-0.1l-0.8-0.6l-0.3,0.4L113.7,118.9L113.7,118.9z M117.8,117.1l-2.7-1.8l1.4-2l0.3,0.4l-1,1.4l0.7,0.5l0.9-1.3
		l0.4,0.3l-0.9,1.3l0.8,0.6l1-1.5l0.4,0.3L117.8,117.1L117.8,117.1z M118.4,113.2c0.2,0.1,0.4,0.2,0.6,0.3c0.2,0,0.4,0.1,0.6,0
		c0.2,0,0.4-0.1,0.5-0.2c0.2-0.1,0.3-0.3,0.4-0.6c0.1-0.2,0.2-0.4,0.2-0.5c0-0.2,0-0.4-0.1-0.6l-0.5,0.1c0,0.1,0.1,0.3,0,0.4
		c0,0.1-0.1,0.2-0.1,0.4c-0.1,0.2-0.2,0.3-0.3,0.4c-0.1,0.1-0.2,0.1-0.4,0.1c-0.1,0-0.3,0-0.4-0.1c-0.1,0-0.3-0.1-0.5-0.2l-0.1-0.1
		c-0.3-0.2-0.5-0.4-0.6-0.6c-0.1-0.2,0-0.5,0.1-0.8c0.1-0.1,0.1-0.2,0.2-0.3c0.1-0.1,0.2-0.1,0.3-0.2l-0.1-0.5
		c-0.2,0.1-0.4,0.1-0.5,0.3c-0.1,0.1-0.3,0.3-0.4,0.4c-0.1,0.2-0.2,0.4-0.2,0.6c0,0.2,0,0.4,0,0.6c0.1,0.2,0.1,0.3,0.3,0.5
		c0.1,0.2,0.3,0.3,0.5,0.4L118.4,113.2L118.4,113.2z M121.7,110.6l-2.9-1.5l0.2-0.5l1.2,0.6l0.1-0.2l-0.8-1.4l0.3-0.5l1,1.6l2.1-0.3
		l-0.3,0.6l-1.8,0.3l-0.1,0.2l1.3,0.7L121.7,110.6L121.7,110.6z M123.3,107.2l0.2-0.5l-1.6-2.5l2.3,1l0.2-0.5l-3-1.3l-0.2,0.5
		l1.6,2.4l-2.2-0.9l-0.2,0.5L123.3,107.2L123.3,107.2z M124.8,103.4l-3.1-1l0.2-0.5l2.3,0.8l-1.8-2.3l0.2-0.5l3.1,1l-0.2,0.5
		l-2.3-0.8l1.8,2.3L124.8,103.4L124.8,103.4z M121.2,101.5c0.1,0,0.2,0,0.3,0c0.1,0,0.2,0,0.2-0.1c0.1,0,0.1-0.1,0.2-0.2
		c0-0.1,0.1-0.2,0.1-0.2c0-0.1,0-0.2,0-0.2c0-0.1,0-0.2,0-0.2c0-0.1-0.1-0.1-0.1-0.2c-0.1-0.1-0.1-0.1-0.2-0.1l-0.1,0.3
		c0.1,0,0.1,0.1,0.2,0.2c0,0.1,0,0.2,0,0.3c0,0.1-0.1,0.2-0.1,0.2c-0.1,0.1-0.1,0.1-0.2,0L121.2,101.5L121.2,101.5z M124.1,94
		l-0.1-0.5l1.8-0.6c0,0,0.1,0,0.1-0.1c0,0,0,0,0-0.1l-1.7-1l0.2-0.5l2.6,1.6c0.1,0,0.1,0.1,0.2,0.1c0.1,0,0.1,0.1,0.1,0.1
		c0,0.1,0.1,0.1,0.1,0.2c0,0.1,0,0.2,0,0.2c0,0.1,0,0.1,0,0.2c0,0.1,0,0.1-0.1,0.2l-0.4-0.1l0-0.2c0-0.1,0-0.1,0-0.2
		c0-0.1-0.1-0.1-0.1-0.1l-0.3-0.2c0,0.1-0.1,0.1-0.1,0.2c-0.1,0-0.1,0.1-0.2,0.1L124.1,94L124.1,94z M127.7,90.4l-3.3-0.3l0.1-0.5
		l1.3,0.1l0.2-1.6l-1.3-0.1l0.1-0.5l3.3,0.3l-0.1,0.5l-1.5-0.1l-0.2,1.6l1.5,0.1L127.7,90.4L127.7,90.4z M128,86.3l-3.3,0l0-0.5
		l2.4,0l-2.4-1.6l0-0.5l3.3,0l0,0.5l-2.4,0l2.4,1.7L128,86.3L128,86.3z M128,82.2l-3.3,0l0-1.4c0-0.1,0-0.3,0-0.4
		c0-0.1,0.1-0.2,0.2-0.3c0.1-0.1,0.2-0.2,0.3-0.2c0.1,0,0.2-0.1,0.4-0.1c0.3,0,0.5,0.1,0.7,0.3h0c0.1-0.2,0.2-0.3,0.3-0.4
		c0.1-0.1,0.3-0.1,0.5-0.1c0.2,0,0.3,0,0.4,0.1c0.1,0.1,0.2,0.1,0.3,0.2c0.1,0.1,0.1,0.2,0.2,0.3c0,0.1,0.1,0.3,0.1,0.4L128,82.2
		L128,82.2z M127.6,81.7l0-1c0-0.2,0-0.3-0.1-0.4c-0.1-0.1-0.2-0.1-0.4-0.1c-0.2,0-0.3,0-0.4,0.1c-0.1,0.1-0.1,0.2-0.1,0.4l0,1
		L127.6,81.7L127.6,81.7z M126.1,81.7l0-0.8c0-0.1,0-0.2-0.1-0.3c-0.1-0.1-0.2-0.1-0.4-0.1c-0.1,0-0.2,0-0.3,0.1
		c0,0.1-0.1,0.2-0.1,0.3l0,0.9H126.1L126.1,81.7z M128,78.3l-3.3,0l0-2.4l0.5,0.2l0,1.7l0.8,0l0-1.6l0.5,0l0,1.6l1,0l0-1.9l0.5,0
		L128,78.3L128,78.3z M128,74.6l-3.3,0l0-1.6c0-0.2,0-0.3,0.1-0.4c0.1-0.1,0.1-0.2,0.2-0.3c0.1-0.1,0.2-0.1,0.3-0.2
		c0.1,0,0.3-0.1,0.4-0.1c0.1,0,0.3,0,0.4,0.1c0.1,0,0.2,0.1,0.3,0.2c0.1,0.1,0.2,0.2,0.2,0.3s0.1,0.3,0.1,0.4l0,1.1l1.2,0L128,74.6
		L128,74.6z M126.4,74l0-0.9c0-0.2,0-0.4-0.1-0.5c-0.1-0.1-0.2-0.1-0.4-0.1c-0.2,0-0.3,0.1-0.4,0.2c-0.1,0.1-0.1,0.3-0.1,0.4l0,0.9
		L126.4,74L126.4,74z M126.4,70.9h-0.2c-0.2,0-0.5,0-0.6-0.1c-0.2-0.1-0.4-0.2-0.5-0.3c-0.1-0.1-0.2-0.3-0.3-0.5
		c-0.1-0.2-0.1-0.4-0.1-0.7c0-0.2,0-0.4,0.1-0.6c0.1-0.2,0.2-0.3,0.3-0.5l0.4,0.4c-0.1,0.1-0.2,0.2-0.2,0.3c0,0.1-0.1,0.2-0.1,0.4
		c0,0.3,0.1,0.6,0.3,0.7c0.2,0.2,0.4,0.2,0.8,0.2h0.2c0.2,0,0.4,0,0.5,0c0.1,0,0.3-0.1,0.4-0.1c0.1-0.1,0.2-0.2,0.2-0.3
		c0.1-0.1,0.1-0.3,0.1-0.5c0-0.1,0-0.3,0-0.4c0-0.1-0.1-0.2-0.2-0.3l0.3-0.4c0.1,0.1,0.3,0.3,0.3,0.5c0.1,0.2,0.1,0.4,0.1,0.6
		c0,0.3,0,0.5-0.1,0.7c-0.1,0.2-0.2,0.4-0.3,0.5c-0.1,0.1-0.3,0.2-0.5,0.3C126.9,70.9,126.7,70.9,126.4,70.9L126.4,70.9z M128,67
		l-3.3,0v-0.5l2.4,0l-2.4-1.6l0-0.5l3.3,0v0.5l-2.4,0l2.4,1.6V67L128,67z M125.3,63.1h-0.5l0-2.7l0.5,0.2v0.9l2.8,0l0,0.5l-2.8,0
		L125.3,63.1L125.3,63.1z M128,59.3l-3.3,0l0-2.4l0.5,0.2l0,1.7l0.8,0l0-1.6l0.5,0l0,1.6l1,0l0-1.9l0.5,0L128,59.3L128,59.3z
		 M125.3,55.7h-0.5l0-2.7l0.5,0.2l0,0.9l2.8,0v0.5l-2.8,0L125.3,55.7z"/>
	<g>
		<path class="st3" d="M62.9,109.3l-0.9,0.2l-0.2-1l1.6-0.5h0.8v5.5h-1.2V109.3z"/>
		<path class="st3" d="M65.4,113l0.6-0.9c0.4,0.3,0.7,0.5,1.2,0.5c0.7,0,1-0.5,1.1-1.2c-0.3,0.2-0.6,0.4-1.1,0.4
			c-1.2,0-1.9-0.7-1.9-1.8c0-1.1,0.8-1.9,2.1-1.9c0.7,0,1.2,0.2,1.6,0.6c0.4,0.4,0.6,1,0.6,2.1c0,1.8-0.8,3-2.4,3
			C66.4,113.7,65.9,113.4,65.4,113z M68.3,109.9c0-0.5-0.4-0.8-1-0.8c-0.6,0-0.9,0.3-0.9,0.8c0,0.5,0.4,0.8,0.9,0.8
			C68,110.7,68.3,110.4,68.3,109.9z"/>
		<path class="st3" d="M70.3,112.6l1.8-1.5c0.7-0.6,0.9-0.9,0.9-1.3c0-0.5-0.3-0.7-0.7-0.7c-0.4,0-0.7,0.2-1.1,0.7l-0.8-0.7
			c0.5-0.7,1.1-1.1,2-1.1c1.1,0,1.9,0.7,1.9,1.7c0,0.9-0.5,1.4-1.4,2.1l-0.9,0.7h2.4v1h-4V112.6z"/>
		<path class="st3" d="M75.1,110.9c0-1.6,1-2.8,2.4-2.8c1.4,0,2.4,1.2,2.4,2.8c0,1.6-1,2.8-2.4,2.8
			C76.1,113.7,75.1,112.5,75.1,110.9z M78.7,110.9c0-1-0.5-1.7-1.2-1.7c-0.7,0-1.2,0.7-1.2,1.7c0,1,0.5,1.7,1.2,1.7
			C78.3,112.6,78.7,111.9,78.7,110.9z"/>
	</g>
</g></a>
</svg>
